;TYPE=PLATED
;Layer: PTH_Through
;EasyEDA Pro v2.2.40.3, 2025-07-25 22:58:42
;Gerber Generator version 0.3
M48
METRIC,LZ,0000.00000
;Hole size 1 = 0.30500 METRIC
T01C0.30500
;Hole size 2 = 0.90002 METRIC
T02C0.90002
;Hole size 3 = 0.91400 METRIC
T03C0.91400
;Hole size 4 = 0.91440 METRIC
T04C0.91440
;Hole size 5 = 1.00000 METRIC
T05C1.00000
;Hole size 6 = 1.00000 METRIC
T06C1.00000
;Hole size 7 = 1.20000 METRIC
T07C1.20000
%
G05
G90
T01
X45.65904Y-27.87396
X18.923Y-66.294
T02
X42.09994Y-40.70096
X42.09994Y-43.24096
X42.09994Y-45.78096
X42.09994Y-48.32096
X42.09994Y-38.16096
X42.09994Y-35.62096
T03
X4.064Y-11.303
X4.064Y-13.843
X4.064Y-16.383
X4.064Y-18.923
X4.064Y-21.463
X4.064Y-24.003
X4.064Y-26.543
X4.064Y-29.083
X4.064Y-31.623
X4.064Y-34.163
X4.064Y-36.703
X4.064Y-39.243
X4.064Y-41.783
X4.064Y-44.323
X4.064Y-46.863
X4.064Y-49.403
X4.064Y-51.943
X4.064Y-54.483
X4.064Y-57.023
X4.064Y-59.563
X29.464Y-59.563
X29.464Y-57.023
X29.464Y-54.483
X29.464Y-51.943
X29.464Y-49.403
X29.464Y-46.863
X29.464Y-44.323
X29.464Y-41.783
X29.464Y-39.243
X29.464Y-36.703
X29.464Y-34.163
X29.464Y-31.623
X29.464Y-29.083
X29.464Y-26.543
X29.464Y-24.003
X29.464Y-21.463
X29.464Y-18.923
X29.464Y-16.383
X29.464Y-13.843
X29.464Y-11.303
T04
X41.529Y-11.557
X41.529Y-14.097
X41.529Y-16.637
X41.529Y-19.177
X41.529Y-21.844
X41.529Y-24.384
T05
X57.912Y-5.715
X57.912Y-8.255
X57.912Y-10.795
X57.912Y-13.335
X57.912Y-15.875
X57.912Y-18.415
X57.912Y-20.955
X57.912Y-23.495
T06
X23.876Y-66.294
X23.876Y-68.834
X23.876Y-71.374
X13.843Y-66.294
X13.843Y-68.834
X13.843Y-71.374
X39.751Y-4.699
X42.291Y-4.699
X44.831Y-4.699
T07
X40.56202Y-62.25101G85X40.56202Y-68.05099
X51.562Y-62.25101G85X51.562Y-68.05099
X62.56198Y-62.25101G85X62.56198Y-68.05099
M30