G04 Layer: TopSilkscreenLayer*
G04 EasyEDA Pro v2.2.40.3, 2025-07-25 22:58:42*
G04 Gerber Generator version 0.3*
G04 Scale: 100 percent, Rotated: No, Reflected: No*
G04 Dimensions in millimeters*
G04 Leading zeros omitted, absolute positions, 4 integers and 5 decimals*
G04 Generated by one-click*
%FSLAX45Y45*%
%MOMM*%
%ADD10C,0.1524*%
%ADD11C,0.203*%
%ADD12C,0.2032*%
%ADD13C,0.1016*%
%ADD14C,0.254*%
%ADD15C,0.1344*%
%ADD16C,0.127*%
%ADD17C,0.5*%
%ADD18C,0.32512*%
G75*


G04 Text Start*
G54D10*
G01X215138Y-881126D02*
G01X215138Y-927608D01*
G01X218186Y-936752D01*
G01X224536Y-943102D01*
G01X233680Y-946150D01*
G01X240030Y-946150D01*
G01X249174Y-943102D01*
G01X255270Y-936752D01*
G01X258572Y-927608D01*
G01X258572Y-881126D01*
G01X288798Y-893572D02*
G01X294894Y-890270D01*
G01X304038Y-881126D01*
G01X304038Y-946150D01*
G54D11*
G01X6812280Y-927100D02*
G01X6625590Y-927100D01*
G01X6812280Y-1051560D02*
G01X6625590Y-1051560D01*
G01X6723380Y-927100D02*
G01X6723380Y-1051560D01*
G01X6812280Y-1114552D02*
G01X6625590Y-1159002D01*
G01X6812280Y-1203452D02*
G01X6625590Y-1159002D01*
G01X6812280Y-1203452D02*
G01X6625590Y-1247902D01*
G01X6812280Y-1292352D02*
G01X6625590Y-1247902D01*
G01X6705600Y-1355344D02*
G01X6705600Y-1515364D01*
G01X6776720Y-1578356D02*
G01X6785610Y-1596136D01*
G01X6812280Y-1622806D01*
G01X6625590Y-1622806D01*
G01X6767830Y-1694688D02*
G01X6776720Y-1694688D01*
G01X6794500Y-1703578D01*
G01X6803390Y-1712468D01*
G01X6812280Y-1730248D01*
G01X6812280Y-1765808D01*
G01X6803390Y-1783588D01*
G01X6794500Y-1792478D01*
G01X6776720Y-1801368D01*
G01X6758940Y-1801368D01*
G01X6741160Y-1792478D01*
G01X6714490Y-1774698D01*
G01X6625590Y-1685798D01*
G01X6625590Y-1810258D01*
G01X6812280Y-1891030D02*
G01X6812280Y-1988820D01*
G01X6741160Y-1935480D01*
G01X6741160Y-1962150D01*
G01X6732270Y-1979930D01*
G01X6723380Y-1988820D01*
G01X6696710Y-1997710D01*
G01X6678930Y-1997710D01*
G01X6652260Y-1988820D01*
G01X6634480Y-1971040D01*
G01X6625590Y-1944370D01*
G01X6625590Y-1917700D01*
G01X6634480Y-1891030D01*
G01X6643370Y-1882140D01*
G01X6661150Y-1873250D01*
G54D10*
G01X5526024Y-429260D02*
G01X5482590Y-429260D01*
G01X5513578Y-429260D02*
G01X5522976Y-438658D01*
G01X5526024Y-444754D01*
G01X5526024Y-454152D01*
G01X5522976Y-460248D01*
G01X5513578Y-463296D01*
G01X5482590Y-463296D01*
G01X5513578Y-463296D02*
G01X5522976Y-472694D01*
G01X5526024Y-478790D01*
G01X5526024Y-488188D01*
G01X5522976Y-494284D01*
G01X5513578Y-497332D01*
G01X5482590Y-497332D01*
G01X5526024Y-527558D02*
G01X5461000Y-527558D01*
G01X5516626Y-527558D02*
G01X5522976Y-533654D01*
G01X5526024Y-539750D01*
G01X5526024Y-549148D01*
G01X5522976Y-555244D01*
G01X5516626Y-561594D01*
G01X5507482Y-564642D01*
G01X5501132Y-564642D01*
G01X5491988Y-561594D01*
G01X5485638Y-555244D01*
G01X5482590Y-549148D01*
G01X5482590Y-539750D01*
G01X5485638Y-533654D01*
G01X5491988Y-527558D01*
G01X5526024Y-594868D02*
G01X5495036Y-594868D01*
G01X5485638Y-597916D01*
G01X5482590Y-604012D01*
G01X5482590Y-613410D01*
G01X5485638Y-619506D01*
G01X5495036Y-628904D01*
G01X5526024Y-628904D02*
G01X5482590Y-628904D01*
G01X5538470Y-696214D02*
G01X5544566Y-693166D01*
G01X5547614Y-683768D01*
G01X5547614Y-677672D01*
G01X5544566Y-668274D01*
G01X5535168Y-662178D01*
G01X5519928Y-659130D01*
G01X5504434Y-659130D01*
G01X5491988Y-662178D01*
G01X5485638Y-668274D01*
G01X5482590Y-677672D01*
G01X5482590Y-680720D01*
G01X5485638Y-689864D01*
G01X5491988Y-696214D01*
G01X5501132Y-699262D01*
G01X5504434Y-699262D01*
G01X5513578Y-696214D01*
G01X5519928Y-689864D01*
G01X5522976Y-680720D01*
G01X5522976Y-677672D01*
G01X5519928Y-668274D01*
G01X5513578Y-662178D01*
G01X5504434Y-659130D01*
G01X5547614Y-748030D02*
G01X5544566Y-738632D01*
G01X5535168Y-732536D01*
G01X5519928Y-729488D01*
G01X5510530Y-729488D01*
G01X5495036Y-732536D01*
G01X5485638Y-738632D01*
G01X5482590Y-748030D01*
G01X5482590Y-754126D01*
G01X5485638Y-763524D01*
G01X5495036Y-769620D01*
G01X5510530Y-772668D01*
G01X5519928Y-772668D01*
G01X5535168Y-769620D01*
G01X5544566Y-763524D01*
G01X5547614Y-754126D01*
G01X5547614Y-748030D01*
G01X5547614Y-839978D02*
G01X5547614Y-808990D01*
G01X5519928Y-805942D01*
G01X5522976Y-808990D01*
G01X5526024Y-818134D01*
G01X5526024Y-827532D01*
G01X5522976Y-836930D01*
G01X5516626Y-843026D01*
G01X5507482Y-846074D01*
G01X5501132Y-846074D01*
G01X5491988Y-843026D01*
G01X5485638Y-836930D01*
G01X5482590Y-827532D01*
G01X5482590Y-818134D01*
G01X5485638Y-808990D01*
G01X5488940Y-805942D01*
G01X5495036Y-802894D01*
G01X5547614Y-894842D02*
G01X5544566Y-885444D01*
G01X5535168Y-879348D01*
G01X5519928Y-876300D01*
G01X5510530Y-876300D01*
G01X5495036Y-879348D01*
G01X5485638Y-885444D01*
G01X5482590Y-894842D01*
G01X5482590Y-900938D01*
G01X5485638Y-910336D01*
G01X5495036Y-916432D01*
G01X5510530Y-919480D01*
G01X5519928Y-919480D01*
G01X5535168Y-916432D01*
G01X5544566Y-910336D01*
G01X5547614Y-900938D01*
G01X5547614Y-894842D01*
G01X2166556Y-6394754D02*
G01X2163508Y-6388404D01*
G01X2154110Y-6385356D01*
G01X2144966Y-6385356D01*
G01X2135568Y-6388404D01*
G01X2132520Y-6394754D01*
G01X2135568Y-6400850D01*
G01X2141918Y-6403898D01*
G01X2157412Y-6406946D01*
G01X2163508Y-6410248D01*
G01X2166556Y-6416344D01*
G01X2166556Y-6419392D01*
G01X2163508Y-6425742D01*
G01X2154110Y-6428790D01*
G01X2144966Y-6428790D01*
G01X2135568Y-6425742D01*
G01X2132520Y-6419392D01*
G01X2196782Y-6376212D02*
G01X2202878Y-6372910D01*
G01X2212022Y-6363766D01*
G01X2212022Y-6428790D01*
G01X1163256Y-6394754D02*
G01X1160208Y-6388404D01*
G01X1150810Y-6385356D01*
G01X1141666Y-6385356D01*
G01X1132268Y-6388404D01*
G01X1129220Y-6394754D01*
G01X1132268Y-6400850D01*
G01X1138618Y-6403898D01*
G01X1154112Y-6406946D01*
G01X1160208Y-6410248D01*
G01X1163256Y-6416344D01*
G01X1163256Y-6419392D01*
G01X1160208Y-6425742D01*
G01X1150810Y-6428790D01*
G01X1141666Y-6428790D01*
G01X1132268Y-6425742D01*
G01X1129220Y-6419392D01*
G01X1196530Y-6379260D02*
G01X1196530Y-6376212D01*
G01X1199578Y-6369862D01*
G01X1202626Y-6366814D01*
G01X1208722Y-6363766D01*
G01X1221168Y-6363766D01*
G01X1227518Y-6366814D01*
G01X1230566Y-6369862D01*
G01X1233614Y-6376212D01*
G01X1233614Y-6382308D01*
G01X1230566Y-6388404D01*
G01X1224216Y-6397802D01*
G01X1193482Y-6428790D01*
G01X1236662Y-6428790D01*
G01X3740454Y-690944D02*
G01X3734104Y-693992D01*
G01X3731056Y-703390D01*
G01X3731056Y-712534D01*
G01X3734104Y-721932D01*
G01X3740454Y-724980D01*
G01X3746550Y-721932D01*
G01X3749598Y-715582D01*
G01X3752646Y-700088D01*
G01X3755948Y-693992D01*
G01X3762044Y-690944D01*
G01X3765092Y-690944D01*
G01X3771442Y-693992D01*
G01X3774490Y-703390D01*
G01X3774490Y-712534D01*
G01X3771442Y-721932D01*
G01X3765092Y-724980D01*
G01X3709466Y-654622D02*
G01X3709466Y-620586D01*
G01X3734104Y-639128D01*
G01X3734104Y-629984D01*
G01X3737152Y-623634D01*
G01X3740454Y-620586D01*
G01X3749598Y-617538D01*
G01X3755948Y-617538D01*
G01X3765092Y-620586D01*
G01X3771442Y-626682D01*
G01X3774490Y-636080D01*
G01X3774490Y-645478D01*
G01X3771442Y-654622D01*
G01X3768140Y-657670D01*
G01X3762044Y-660718D01*
G54D12*
G01X4277360Y-1127228D02*
G01X4304792Y-1199364D01*
G01X4332224Y-1127228D02*
G01X4304792Y-1199364D01*
G01X4420362Y-1144500D02*
G01X4417060Y-1137642D01*
G01X4410202Y-1130784D01*
G01X4403344Y-1127228D01*
G01X4389628Y-1127228D01*
G01X4382770Y-1130784D01*
G01X4375912Y-1137642D01*
G01X4372356Y-1144500D01*
G01X4369054Y-1154660D01*
G01X4369054Y-1171932D01*
G01X4372356Y-1182092D01*
G01X4375912Y-1188950D01*
G01X4382770Y-1195808D01*
G01X4389628Y-1199364D01*
G01X4403344Y-1199364D01*
G01X4410202Y-1195808D01*
G01X4417060Y-1188950D01*
G01X4420362Y-1182092D01*
G01X4508500Y-1144500D02*
G01X4505198Y-1137642D01*
G01X4498340Y-1130784D01*
G01X4491482Y-1127228D01*
G01X4477766Y-1127228D01*
G01X4470908Y-1130784D01*
G01X4464050Y-1137642D01*
G01X4460494Y-1144500D01*
G01X4457192Y-1154660D01*
G01X4457192Y-1171932D01*
G01X4460494Y-1182092D01*
G01X4464050Y-1188950D01*
G01X4470908Y-1195808D01*
G01X4477766Y-1199364D01*
G01X4491482Y-1199364D01*
G01X4498340Y-1195808D01*
G01X4505198Y-1188950D01*
G01X4508500Y-1182092D01*
G01X4341368Y-1411200D02*
G01X4338066Y-1404342D01*
G01X4331208Y-1397484D01*
G01X4324350Y-1393928D01*
G01X4310634Y-1393928D01*
G01X4303776Y-1397484D01*
G01X4296918Y-1404342D01*
G01X4293362Y-1411200D01*
G01X4290060Y-1421360D01*
G01X4290060Y-1438632D01*
G01X4293362Y-1448792D01*
G01X4296918Y-1455650D01*
G01X4303776Y-1462508D01*
G01X4310634Y-1466064D01*
G01X4324350Y-1466064D01*
G01X4331208Y-1462508D01*
G01X4338066Y-1455650D01*
G01X4341368Y-1448792D01*
G01X4341368Y-1438632D01*
G01X4324350Y-1438632D02*
G01X4341368Y-1438632D01*
G01X4378198Y-1393928D02*
G01X4378198Y-1466064D01*
G01X4378198Y-1393928D02*
G01X4426204Y-1466064D01*
G01X4426204Y-1393928D02*
G01X4426204Y-1466064D01*
G01X4463034Y-1393928D02*
G01X4463034Y-1466064D01*
G01X4463034Y-1393928D02*
G01X4486910Y-1393928D01*
G01X4497324Y-1397484D01*
G01X4504182Y-1404342D01*
G01X4507484Y-1411200D01*
G01X4511040Y-1421360D01*
G01X4511040Y-1438632D01*
G01X4507484Y-1448792D01*
G01X4504182Y-1455650D01*
G01X4497324Y-1462508D01*
G01X4486910Y-1466064D01*
G01X4463034Y-1466064D01*
G01X4350766Y-1632942D02*
G01X4343908Y-1626084D01*
G01X4333494Y-1622528D01*
G01X4319778Y-1622528D01*
G01X4309618Y-1626084D01*
G01X4302760Y-1632942D01*
G01X4302760Y-1639800D01*
G01X4306062Y-1646658D01*
G01X4309618Y-1649960D01*
G01X4316476Y-1653516D01*
G01X4337050Y-1660374D01*
G01X4343908Y-1663676D01*
G01X4347210Y-1667232D01*
G01X4350766Y-1674090D01*
G01X4350766Y-1684250D01*
G01X4343908Y-1691108D01*
G01X4333494Y-1694664D01*
G01X4319778Y-1694664D01*
G01X4309618Y-1691108D01*
G01X4302760Y-1684250D01*
G01X4438904Y-1639800D02*
G01X4435602Y-1632942D01*
G01X4428744Y-1626084D01*
G01X4421886Y-1622528D01*
G01X4408170Y-1622528D01*
G01X4401312Y-1626084D01*
G01X4394454Y-1632942D01*
G01X4390898Y-1639800D01*
G01X4387596Y-1649960D01*
G01X4387596Y-1667232D01*
G01X4390898Y-1677392D01*
G01X4394454Y-1684250D01*
G01X4401312Y-1691108D01*
G01X4408170Y-1694664D01*
G01X4421886Y-1694664D01*
G01X4428744Y-1691108D01*
G01X4435602Y-1684250D01*
G01X4438904Y-1677392D01*
G01X4475734Y-1622528D02*
G01X4475734Y-1694664D01*
G01X4475734Y-1694664D02*
G01X4516882Y-1694664D01*
G01X4338066Y-1899642D02*
G01X4331208Y-1892784D01*
G01X4320794Y-1889228D01*
G01X4307078Y-1889228D01*
G01X4296918Y-1892784D01*
G01X4290060Y-1899642D01*
G01X4290060Y-1906500D01*
G01X4293362Y-1913358D01*
G01X4296918Y-1916660D01*
G01X4303776Y-1920216D01*
G01X4324350Y-1927074D01*
G01X4331208Y-1930376D01*
G01X4334510Y-1933932D01*
G01X4338066Y-1940790D01*
G01X4338066Y-1950950D01*
G01X4331208Y-1957808D01*
G01X4320794Y-1961364D01*
G01X4307078Y-1961364D01*
G01X4296918Y-1957808D01*
G01X4290060Y-1950950D01*
G01X4374896Y-1889228D02*
G01X4374896Y-1961364D01*
G01X4374896Y-1889228D02*
G01X4398772Y-1889228D01*
G01X4409186Y-1892784D01*
G01X4416044Y-1899642D01*
G01X4419346Y-1906500D01*
G01X4422902Y-1916660D01*
G01X4422902Y-1933932D01*
G01X4419346Y-1944092D01*
G01X4416044Y-1950950D01*
G01X4409186Y-1957808D01*
G01X4398772Y-1961364D01*
G01X4374896Y-1961364D01*
G01X4487164Y-1889228D02*
G01X4459732Y-1961364D01*
G01X4487164Y-1889228D02*
G01X4514596Y-1961364D01*
G01X4469892Y-1937234D02*
G01X4504182Y-1937234D01*
G01X4341368Y-2173200D02*
G01X4338066Y-2166342D01*
G01X4331208Y-2159484D01*
G01X4324350Y-2155928D01*
G01X4310634Y-2155928D01*
G01X4303776Y-2159484D01*
G01X4296918Y-2166342D01*
G01X4293362Y-2173200D01*
G01X4290060Y-2183360D01*
G01X4290060Y-2200632D01*
G01X4293362Y-2210792D01*
G01X4296918Y-2217650D01*
G01X4303776Y-2224508D01*
G01X4310634Y-2228064D01*
G01X4324350Y-2228064D01*
G01X4331208Y-2224508D01*
G01X4338066Y-2217650D01*
G01X4341368Y-2210792D01*
G01X4426204Y-2166342D02*
G01X4419346Y-2159484D01*
G01X4408932Y-2155928D01*
G01X4395216Y-2155928D01*
G01X4385056Y-2159484D01*
G01X4378198Y-2166342D01*
G01X4378198Y-2173200D01*
G01X4381500Y-2180058D01*
G01X4385056Y-2183360D01*
G01X4391914Y-2186916D01*
G01X4412488Y-2193774D01*
G01X4419346Y-2197076D01*
G01X4422648Y-2200632D01*
G01X4426204Y-2207490D01*
G01X4426204Y-2217650D01*
G01X4419346Y-2224508D01*
G01X4408932Y-2228064D01*
G01X4395216Y-2228064D01*
G01X4385056Y-2224508D01*
G01X4378198Y-2217650D01*
G01X4463034Y-2155928D02*
G01X4463034Y-2228064D01*
G01X4463034Y-2155928D02*
G01X4493768Y-2155928D01*
G01X4504182Y-2159484D01*
G01X4507484Y-2162786D01*
G01X4511040Y-2169644D01*
G01X4511040Y-2176502D01*
G01X4507484Y-2183360D01*
G01X4504182Y-2186916D01*
G01X4493768Y-2190218D01*
G01X4463034Y-2190218D02*
G01X4493768Y-2190218D01*
G01X4504182Y-2193774D01*
G01X4507484Y-2197076D01*
G01X4511040Y-2203934D01*
G01X4511040Y-2214348D01*
G01X4507484Y-2221206D01*
G01X4504182Y-2224508D01*
G01X4493768Y-2228064D01*
G01X4463034Y-2228064D01*
G01X4338066Y-2407642D02*
G01X4331208Y-2400784D01*
G01X4320794Y-2397228D01*
G01X4307078Y-2397228D01*
G01X4296918Y-2400784D01*
G01X4290060Y-2407642D01*
G01X4290060Y-2414500D01*
G01X4293362Y-2421358D01*
G01X4296918Y-2424660D01*
G01X4303776Y-2428216D01*
G01X4324350Y-2435074D01*
G01X4331208Y-2438376D01*
G01X4334510Y-2441932D01*
G01X4338066Y-2448790D01*
G01X4338066Y-2458950D01*
G01X4331208Y-2465808D01*
G01X4320794Y-2469364D01*
G01X4307078Y-2469364D01*
G01X4296918Y-2465808D01*
G01X4290060Y-2458950D01*
G01X4374896Y-2397228D02*
G01X4374896Y-2469364D01*
G01X4374896Y-2397228D02*
G01X4398772Y-2397228D01*
G01X4409186Y-2400784D01*
G01X4416044Y-2407642D01*
G01X4419346Y-2414500D01*
G01X4422902Y-2424660D01*
G01X4422902Y-2441932D01*
G01X4419346Y-2452092D01*
G01X4416044Y-2458950D01*
G01X4409186Y-2465808D01*
G01X4398772Y-2469364D01*
G01X4374896Y-2469364D01*
G01X4480306Y-2397228D02*
G01X4473448Y-2400784D01*
G01X4466590Y-2407642D01*
G01X4463034Y-2414500D01*
G01X4459732Y-2424660D01*
G01X4459732Y-2441932D01*
G01X4463034Y-2452092D01*
G01X4466590Y-2458950D01*
G01X4473448Y-2465808D01*
G01X4480306Y-2469364D01*
G01X4494022Y-2469364D01*
G01X4500880Y-2465808D01*
G01X4507738Y-2458950D01*
G01X4511040Y-2452092D01*
G01X4514596Y-2441932D01*
G01X4514596Y-2424660D01*
G01X4511040Y-2414500D01*
G01X4507738Y-2407642D01*
G01X4500880Y-2400784D01*
G01X4494022Y-2397228D01*
G01X4480306Y-2397228D01*
G01X4991608Y-1457960D02*
G01X4913122Y-1457960D01*
G01X4991608Y-1510284D02*
G01X4913122Y-1510284D01*
G01X4954270Y-1457960D02*
G01X4954270Y-1510284D01*
G01X4991608Y-1548638D02*
G01X4913122Y-1567180D01*
G01X4991608Y-1585976D02*
G01X4913122Y-1567180D01*
G01X4991608Y-1585976D02*
G01X4913122Y-1604772D01*
G01X4991608Y-1623314D02*
G01X4913122Y-1604772D01*
G01X4946904Y-1661668D02*
G01X4946904Y-1728978D01*
G01X4980432Y-1812036D02*
G01X4988052Y-1808480D01*
G01X4991608Y-1797050D01*
G01X4991608Y-1789684D01*
G01X4988052Y-1778508D01*
G01X4976622Y-1770888D01*
G01X4958080Y-1767332D01*
G01X4939284Y-1767332D01*
G01X4924298Y-1770888D01*
G01X4916932Y-1778508D01*
G01X4913122Y-1789684D01*
G01X4913122Y-1793494D01*
G01X4916932Y-1804670D01*
G01X4924298Y-1812036D01*
G01X4935474Y-1815846D01*
G01X4939284Y-1815846D01*
G01X4950460Y-1812036D01*
G01X4958080Y-1804670D01*
G01X4961636Y-1793494D01*
G01X4961636Y-1789684D01*
G01X4958080Y-1778508D01*
G01X4950460Y-1770888D01*
G01X4939284Y-1767332D01*
G01X4976622Y-1854200D02*
G01X4980432Y-1861566D01*
G01X4991608Y-1872742D01*
G01X4913122Y-1872742D01*
G01X4976622Y-1911096D02*
G01X4980432Y-1918462D01*
G01X4991608Y-1929638D01*
G01X4913122Y-1929638D01*
G54D10*
G01X4020820Y-909066D02*
G01X4020820Y-974090D01*
G01X4020820Y-940054D02*
G01X4026916Y-933704D01*
G01X4033266Y-930656D01*
G01X4042410Y-930656D01*
G01X4048760Y-933704D01*
G01X4054856Y-940054D01*
G01X4057904Y-949198D01*
G01X4057904Y-955548D01*
G01X4054856Y-964692D01*
G01X4048760Y-971042D01*
G01X4042410Y-974090D01*
G01X4033266Y-974090D01*
G01X4026916Y-971042D01*
G01X4020820Y-964692D01*
G01X4088130Y-930656D02*
G01X4088130Y-974090D01*
G01X4088130Y-943102D02*
G01X4097274Y-933704D01*
G01X4103370Y-930656D01*
G01X4112768Y-930656D01*
G01X4118864Y-933704D01*
G01X4122166Y-943102D01*
G01X4122166Y-974090D01*
G01X4122166Y-943102D02*
G01X4131310Y-933704D01*
G01X4137660Y-930656D01*
G01X4146804Y-930656D01*
G01X4152900Y-933704D01*
G01X4156202Y-943102D01*
G01X4156202Y-974090D01*
G01X4186428Y-930656D02*
G01X4186428Y-995680D01*
G01X4186428Y-940054D02*
G01X4192524Y-933704D01*
G01X4198620Y-930656D01*
G01X4208018Y-930656D01*
G01X4214114Y-933704D01*
G01X4220464Y-940054D01*
G01X4223512Y-949198D01*
G01X4223512Y-955548D01*
G01X4220464Y-964692D01*
G01X4214114Y-971042D01*
G01X4208018Y-974090D01*
G01X4198620Y-974090D01*
G01X4192524Y-971042D01*
G01X4186428Y-964692D01*
G01X4256786Y-924560D02*
G01X4256786Y-921512D01*
G01X4259834Y-915162D01*
G01X4262882Y-912114D01*
G01X4268978Y-909066D01*
G01X4281424Y-909066D01*
G01X4287774Y-912114D01*
G01X4290822Y-915162D01*
G01X4293870Y-921512D01*
G01X4293870Y-927608D01*
G01X4290822Y-933704D01*
G01X4284472Y-943102D01*
G01X4253738Y-974090D01*
G01X4296918Y-974090D01*
G01X4342384Y-909066D02*
G01X4333240Y-912114D01*
G01X4330192Y-918210D01*
G01X4330192Y-924560D01*
G01X4333240Y-930656D01*
G01X4339336Y-933704D01*
G01X4351782Y-936752D01*
G01X4361180Y-940054D01*
G01X4367276Y-946150D01*
G01X4370324Y-952246D01*
G01X4370324Y-961644D01*
G01X4367276Y-967740D01*
G01X4364228Y-971042D01*
G01X4354830Y-974090D01*
G01X4342384Y-974090D01*
G01X4333240Y-971042D01*
G01X4330192Y-967740D01*
G01X4327144Y-961644D01*
G01X4327144Y-952246D01*
G01X4330192Y-946150D01*
G01X4336288Y-940054D01*
G01X4345686Y-936752D01*
G01X4357878Y-933704D01*
G01X4364228Y-930656D01*
G01X4367276Y-924560D01*
G01X4367276Y-918210D01*
G01X4364228Y-912114D01*
G01X4354830Y-909066D01*
G01X4342384Y-909066D01*
G01X4419092Y-909066D02*
G01X4409694Y-912114D01*
G01X4403598Y-921512D01*
G01X4400550Y-936752D01*
G01X4400550Y-946150D01*
G01X4403598Y-961644D01*
G01X4409694Y-971042D01*
G01X4419092Y-974090D01*
G01X4425188Y-974090D01*
G01X4434586Y-971042D01*
G01X4440682Y-961644D01*
G01X4443730Y-946150D01*
G01X4443730Y-936752D01*
G01X4440682Y-921512D01*
G01X4434586Y-912114D01*
G01X4425188Y-909066D01*
G01X4419092Y-909066D01*
G54D13*
G01X4548022Y-4126332D02*
G01X4544212Y-4119220D01*
G01X4537100Y-4111854D01*
G01X4529734Y-4108298D01*
G01X4515002Y-4108298D01*
G01X4507890Y-4111854D01*
G01X4500524Y-4119220D01*
G01X4496714Y-4126332D01*
G01X4493158Y-4137508D01*
G01X4493158Y-4155542D01*
G01X4496714Y-4166718D01*
G01X4500524Y-4173830D01*
G01X4507890Y-4181196D01*
G01X4515002Y-4184752D01*
G01X4529734Y-4184752D01*
G01X4537100Y-4181196D01*
G01X4544212Y-4173830D01*
G01X4548022Y-4166718D01*
G01X4604918Y-4108298D02*
G01X4575708Y-4184752D01*
G01X4604918Y-4108298D02*
G01X4634128Y-4184752D01*
G01X4586630Y-4159352D02*
G01X4623206Y-4159352D01*
G01X4687468Y-4108298D02*
G01X4687468Y-4184752D01*
G01X4661814Y-4108298D02*
G01X4712868Y-4108298D01*
G01X4769764Y-4108298D02*
G01X4740554Y-4184752D01*
G01X4769764Y-4108298D02*
G01X4798974Y-4184752D01*
G01X4751476Y-4159352D02*
G01X4788052Y-4159352D01*
G01X4826660Y-4108298D02*
G01X4826660Y-4184752D01*
G01X4826660Y-4184752D02*
G01X4870602Y-4184752D01*
G01X4898288Y-4108298D02*
G01X4898288Y-4184752D01*
G01X4898288Y-4108298D02*
G01X4945786Y-4108298D01*
G01X4898288Y-4144620D02*
G01X4927498Y-4144620D01*
G01X4898288Y-4184752D02*
G01X4945786Y-4184752D01*
G01X4973472Y-4108298D02*
G01X5024526Y-4184752D01*
G01X5024526Y-4108298D02*
G01X4973472Y-4184752D01*
G01X5134000Y-4108298D02*
G01X5134000Y-4184752D01*
G01X5134000Y-4108298D02*
G01X5163210Y-4184752D01*
G01X5192420Y-4108298D02*
G01X5163210Y-4184752D01*
G01X5192420Y-4108298D02*
G01X5192420Y-4184752D01*
G01X5220106Y-4108298D02*
G01X5223662Y-4111854D01*
G01X5227472Y-4108298D01*
G01X5223662Y-4104488D01*
G01X5220106Y-4108298D01*
G01X5223662Y-4133698D02*
G01X5223662Y-4184752D01*
G01X5299100Y-4144620D02*
G01X5291734Y-4137508D01*
G01X5284368Y-4133698D01*
G01X5273446Y-4133698D01*
G01X5266080Y-4137508D01*
G01X5258714Y-4144620D01*
G01X5255158Y-4155542D01*
G01X5255158Y-4162908D01*
G01X5258714Y-4173830D01*
G01X5266080Y-4181196D01*
G01X5273446Y-4184752D01*
G01X5284368Y-4184752D01*
G01X5291734Y-4181196D01*
G01X5299100Y-4173830D01*
G01X5326786Y-4133698D02*
G01X5326786Y-4184752D01*
G01X5326786Y-4155542D02*
G01X5330342Y-4144620D01*
G01X5337708Y-4137508D01*
G01X5345074Y-4133698D01*
G01X5355996Y-4133698D01*
G01X5401970Y-4133698D02*
G01X5394604Y-4137508D01*
G01X5387238Y-4144620D01*
G01X5383682Y-4155542D01*
G01X5383682Y-4162908D01*
G01X5387238Y-4173830D01*
G01X5394604Y-4181196D01*
G01X5401970Y-4184752D01*
G01X5412892Y-4184752D01*
G01X5420258Y-4181196D01*
G01X5427624Y-4173830D01*
G01X5431180Y-4162908D01*
G01X5431180Y-4155542D01*
G01X5427624Y-4144620D01*
G01X5420258Y-4137508D01*
G01X5412892Y-4133698D01*
G01X5401970Y-4133698D01*
G01X5509920Y-4119220D02*
G01X5502808Y-4111854D01*
G01X5491632Y-4108298D01*
G01X5477154Y-4108298D01*
G01X5466232Y-4111854D01*
G01X5458866Y-4119220D01*
G01X5458866Y-4126332D01*
G01X5462422Y-4133698D01*
G01X5466232Y-4137508D01*
G01X5473598Y-4141064D01*
G01X5495442Y-4148430D01*
G01X5502808Y-4151986D01*
G01X5506364Y-4155542D01*
G01X5509920Y-4162908D01*
G01X5509920Y-4173830D01*
G01X5502808Y-4181196D01*
G01X5491632Y-4184752D01*
G01X5477154Y-4184752D01*
G01X5466232Y-4181196D01*
G01X5458866Y-4173830D01*
G01X5537606Y-4108298D02*
G01X5537606Y-4184752D01*
G01X5537606Y-4108298D02*
G01X5563260Y-4108298D01*
G01X5574182Y-4111854D01*
G01X5581548Y-4119220D01*
G01X5585104Y-4126332D01*
G01X5588660Y-4137508D01*
G01X5588660Y-4155542D01*
G01X5585104Y-4166718D01*
G01X5581548Y-4173830D01*
G01X5574182Y-4181196D01*
G01X5563260Y-4184752D01*
G01X5537606Y-4184752D01*
G01X4555744Y-4368546D02*
G01X4551934Y-4361434D01*
G01X4544822Y-4354068D01*
G01X4537456Y-4350512D01*
G01X4522724Y-4350512D01*
G01X4515612Y-4354068D01*
G01X4508246Y-4361434D01*
G01X4504436Y-4368546D01*
G01X4500880Y-4379722D01*
G01X4500880Y-4397756D01*
G01X4504436Y-4408932D01*
G01X4508246Y-4416044D01*
G01X4515612Y-4423410D01*
G01X4522724Y-4426966D01*
G01X4537456Y-4426966D01*
G01X4544822Y-4423410D01*
G01X4551934Y-4416044D01*
G01X4555744Y-4408932D01*
G01X4627372Y-4375912D02*
G01X4627372Y-4426966D01*
G01X4627372Y-4386834D02*
G01X4620006Y-4379722D01*
G01X4612640Y-4375912D01*
G01X4601718Y-4375912D01*
G01X4594352Y-4379722D01*
G01X4586986Y-4386834D01*
G01X4583430Y-4397756D01*
G01X4583430Y-4405122D01*
G01X4586986Y-4416044D01*
G01X4594352Y-4423410D01*
G01X4601718Y-4426966D01*
G01X4612640Y-4426966D01*
G01X4620006Y-4423410D01*
G01X4627372Y-4416044D01*
G01X4655058Y-4375912D02*
G01X4655058Y-4426966D01*
G01X4655058Y-4397756D02*
G01X4658614Y-4386834D01*
G01X4665980Y-4379722D01*
G01X4673346Y-4375912D01*
G01X4684268Y-4375912D01*
G01X4755896Y-4350512D02*
G01X4755896Y-4426966D01*
G01X4755896Y-4386834D02*
G01X4748530Y-4379722D01*
G01X4741164Y-4375912D01*
G01X4730242Y-4375912D01*
G01X4722876Y-4379722D01*
G01X4715510Y-4386834D01*
G01X4711954Y-4397756D01*
G01X4711954Y-4405122D01*
G01X4715510Y-4416044D01*
G01X4722876Y-4423410D01*
G01X4730242Y-4426966D01*
G01X4741164Y-4426966D01*
G01X4748530Y-4423410D01*
G01X4755896Y-4416044D01*
G01X4894580Y-4350512D02*
G01X4865370Y-4426966D01*
G01X4894580Y-4350512D02*
G01X4923790Y-4426966D01*
G01X4876292Y-4401566D02*
G01X4912868Y-4401566D01*
G01X4995418Y-4350512D02*
G01X4995418Y-4426966D01*
G01X4995418Y-4386834D02*
G01X4988052Y-4379722D01*
G01X4980686Y-4375912D01*
G01X4969764Y-4375912D01*
G01X4962398Y-4379722D01*
G01X4955032Y-4386834D01*
G01X4951476Y-4397756D01*
G01X4951476Y-4405122D01*
G01X4955032Y-4416044D01*
G01X4962398Y-4423410D01*
G01X4969764Y-4426966D01*
G01X4980686Y-4426966D01*
G01X4988052Y-4423410D01*
G01X4995418Y-4416044D01*
G01X5067046Y-4375912D02*
G01X5067046Y-4426966D01*
G01X5067046Y-4386834D02*
G01X5059680Y-4379722D01*
G01X5052314Y-4375912D01*
G01X5041392Y-4375912D01*
G01X5034026Y-4379722D01*
G01X5026660Y-4386834D01*
G01X5023104Y-4397756D01*
G01X5023104Y-4405122D01*
G01X5026660Y-4416044D01*
G01X5034026Y-4423410D01*
G01X5041392Y-4426966D01*
G01X5052314Y-4426966D01*
G01X5059680Y-4423410D01*
G01X5067046Y-4416044D01*
G01X5094732Y-4375912D02*
G01X5094732Y-4452620D01*
G01X5094732Y-4386834D02*
G01X5102098Y-4379722D01*
G01X5109464Y-4375912D01*
G01X5120386Y-4375912D01*
G01X5127498Y-4379722D01*
G01X5134864Y-4386834D01*
G01X5138674Y-4397756D01*
G01X5138674Y-4405122D01*
G01X5134864Y-4416044D01*
G01X5127498Y-4423410D01*
G01X5120386Y-4426966D01*
G01X5109464Y-4426966D01*
G01X5102098Y-4423410D01*
G01X5094732Y-4416044D01*
G01X5177282Y-4350512D02*
G01X5177282Y-4412488D01*
G01X5181092Y-4423410D01*
G01X5188204Y-4426966D01*
G01X5195570Y-4426966D01*
G01X5166360Y-4375912D02*
G01X5192014Y-4375912D01*
G01X5223256Y-4397756D02*
G01X5267198Y-4397756D01*
G01X5267198Y-4390644D01*
G01X5263388Y-4383278D01*
G01X5259832Y-4379722D01*
G01X5252466Y-4375912D01*
G01X5241544Y-4375912D01*
G01X5234178Y-4379722D01*
G01X5226812Y-4386834D01*
G01X5223256Y-4397756D01*
G01X5223256Y-4405122D01*
G01X5226812Y-4416044D01*
G01X5234178Y-4423410D01*
G01X5241544Y-4426966D01*
G01X5252466Y-4426966D01*
G01X5259832Y-4423410D01*
G01X5267198Y-4416044D01*
G01X5294884Y-4375912D02*
G01X5294884Y-4426966D01*
G01X5294884Y-4397756D02*
G01X5298440Y-4386834D01*
G01X5305806Y-4379722D01*
G01X5313172Y-4375912D01*
G01X5324094Y-4375912D01*
G01X3900805Y-3556508D02*
G01X3898519Y-3552190D01*
G01X3894201Y-3547872D01*
G01X3889883Y-3545586D01*
G01X3881247Y-3545586D01*
G01X3876675Y-3547872D01*
G01X3872357Y-3552190D01*
G01X3870325Y-3556508D01*
G01X3868039Y-3563112D01*
G01X3868039Y-3574034D01*
G01X3870325Y-3580638D01*
G01X3872357Y-3584956D01*
G01X3876675Y-3589274D01*
G01X3881247Y-3591560D01*
G01X3889883Y-3591560D01*
G01X3894201Y-3589274D01*
G01X3898519Y-3584956D01*
G01X3900805Y-3580638D01*
G01X3900805Y-3574034D01*
G01X3889883Y-3574034D02*
G01X3900805Y-3574034D01*
G01X3921379Y-3545586D02*
G01X3921379Y-3591560D01*
G01X3921379Y-3545586D02*
G01X3952113Y-3591560D01*
G01X3952113Y-3545586D02*
G01X3952113Y-3591560D01*
G01X3972687Y-3545586D02*
G01X3972687Y-3591560D01*
G01X3972687Y-3545586D02*
G01X3987927Y-3545586D01*
G01X3994531Y-3547872D01*
G01X3998849Y-3552190D01*
G01X4001135Y-3556508D01*
G01X4003421Y-3563112D01*
G01X4003421Y-3574034D01*
G01X4001135Y-3580638D01*
G01X3998849Y-3584956D01*
G01X3994531Y-3589274D01*
G01X3987927Y-3591560D01*
G01X3972687Y-3591560D01*
G01X3862578Y-3798062D02*
G01X3880104Y-3844036D01*
G01X3897376Y-3798062D02*
G01X3880104Y-3844036D01*
G01X3950716Y-3808984D02*
G01X3948684Y-3804666D01*
G01X3944112Y-3800348D01*
G01X3939794Y-3798062D01*
G01X3931158Y-3798062D01*
G01X3926840Y-3800348D01*
G01X3922268Y-3804666D01*
G01X3920236Y-3808984D01*
G01X3917950Y-3815588D01*
G01X3917950Y-3826510D01*
G01X3920236Y-3833114D01*
G01X3922268Y-3837432D01*
G01X3926840Y-3841750D01*
G01X3931158Y-3844036D01*
G01X3939794Y-3844036D01*
G01X3944112Y-3841750D01*
G01X3948684Y-3837432D01*
G01X3950716Y-3833114D01*
G01X4004056Y-3808984D02*
G01X4002024Y-3804666D01*
G01X3997452Y-3800348D01*
G01X3993134Y-3798062D01*
G01X3984498Y-3798062D01*
G01X3980180Y-3800348D01*
G01X3975608Y-3804666D01*
G01X3973576Y-3808984D01*
G01X3971290Y-3815588D01*
G01X3971290Y-3826510D01*
G01X3973576Y-3833114D01*
G01X3975608Y-3837432D01*
G01X3980180Y-3841750D01*
G01X3984498Y-3844036D01*
G01X3993134Y-3844036D01*
G01X3997452Y-3841750D01*
G01X4002024Y-3837432D01*
G01X4004056Y-3833114D01*
G01X3850640Y-4050538D02*
G01X3850640Y-4096512D01*
G01X3850640Y-4050538D02*
G01X3868166Y-4096512D01*
G01X3885438Y-4050538D02*
G01X3868166Y-4096512D01*
G01X3885438Y-4050538D02*
G01X3885438Y-4096512D01*
G01X3906012Y-4050538D02*
G01X3906012Y-4096512D01*
G01X3957320Y-4057142D02*
G01X3953002Y-4052824D01*
G01X3946398Y-4050538D01*
G01X3937508Y-4050538D01*
G01X3931158Y-4052824D01*
G01X3926586Y-4057142D01*
G01X3926586Y-4061460D01*
G01X3928872Y-4066032D01*
G01X3931158Y-4068064D01*
G01X3935476Y-4070350D01*
G01X3948430Y-4074668D01*
G01X3953002Y-4076954D01*
G01X3955034Y-4078986D01*
G01X3957320Y-4083304D01*
G01X3957320Y-4089908D01*
G01X3953002Y-4094226D01*
G01X3946398Y-4096512D01*
G01X3937508Y-4096512D01*
G01X3931158Y-4094226D01*
G01X3926586Y-4089908D01*
G01X3991102Y-4050538D02*
G01X3986784Y-4052824D01*
G01X3982212Y-4057142D01*
G01X3980180Y-4061460D01*
G01X3977894Y-4068064D01*
G01X3977894Y-4078986D01*
G01X3980180Y-4085590D01*
G01X3982212Y-4089908D01*
G01X3986784Y-4094226D01*
G01X3991102Y-4096512D01*
G01X3999738Y-4096512D01*
G01X4004056Y-4094226D01*
G01X4008628Y-4089908D01*
G01X4010660Y-4085590D01*
G01X4012946Y-4078986D01*
G01X4012946Y-4068064D01*
G01X4010660Y-4061460D01*
G01X4008628Y-4057142D01*
G01X4004056Y-4052824D01*
G01X3999738Y-4050538D01*
G01X3991102Y-4050538D01*
G01X3850640Y-4303014D02*
G01X3850640Y-4348988D01*
G01X3850640Y-4303014D02*
G01X3868166Y-4348988D01*
G01X3885438Y-4303014D02*
G01X3868166Y-4348988D01*
G01X3885438Y-4303014D02*
G01X3885438Y-4348988D01*
G01X3919220Y-4303014D02*
G01X3914902Y-4305300D01*
G01X3910330Y-4309618D01*
G01X3908298Y-4313936D01*
G01X3906012Y-4320540D01*
G01X3906012Y-4331462D01*
G01X3908298Y-4338066D01*
G01X3910330Y-4342384D01*
G01X3914902Y-4346702D01*
G01X3919220Y-4348988D01*
G01X3927856Y-4348988D01*
G01X3932174Y-4346702D01*
G01X3936746Y-4342384D01*
G01X3938778Y-4338066D01*
G01X3941064Y-4331462D01*
G01X3941064Y-4320540D01*
G01X3938778Y-4313936D01*
G01X3936746Y-4309618D01*
G01X3932174Y-4305300D01*
G01X3927856Y-4303014D01*
G01X3919220Y-4303014D01*
G01X3992372Y-4309618D02*
G01X3987800Y-4305300D01*
G01X3981450Y-4303014D01*
G01X3972560Y-4303014D01*
G01X3965956Y-4305300D01*
G01X3961638Y-4309618D01*
G01X3961638Y-4313936D01*
G01X3963924Y-4318508D01*
G01X3965956Y-4320540D01*
G01X3970528Y-4322826D01*
G01X3983482Y-4327144D01*
G01X3987800Y-4329430D01*
G01X3990086Y-4331462D01*
G01X3992372Y-4335780D01*
G01X3992372Y-4342384D01*
G01X3987800Y-4346702D01*
G01X3981450Y-4348988D01*
G01X3972560Y-4348988D01*
G01X3965956Y-4346702D01*
G01X3961638Y-4342384D01*
G01X4012946Y-4303014D02*
G01X4012946Y-4348988D01*
G01X3898519Y-4562094D02*
G01X3894201Y-4557776D01*
G01X3887597Y-4555490D01*
G01X3878961Y-4555490D01*
G01X3872357Y-4557776D01*
G01X3868039Y-4562094D01*
G01X3868039Y-4566412D01*
G01X3870325Y-4570984D01*
G01X3872357Y-4573016D01*
G01X3876675Y-4575302D01*
G01X3889883Y-4579620D01*
G01X3894201Y-4581906D01*
G01X3896487Y-4583938D01*
G01X3898519Y-4588256D01*
G01X3898519Y-4594860D01*
G01X3894201Y-4599178D01*
G01X3887597Y-4601464D01*
G01X3878961Y-4601464D01*
G01X3872357Y-4599178D01*
G01X3868039Y-4594860D01*
G01X3951859Y-4566412D02*
G01X3949827Y-4562094D01*
G01X3945255Y-4557776D01*
G01X3940937Y-4555490D01*
G01X3932301Y-4555490D01*
G01X3927983Y-4557776D01*
G01X3923411Y-4562094D01*
G01X3921379Y-4566412D01*
G01X3919093Y-4573016D01*
G01X3919093Y-4583938D01*
G01X3921379Y-4590542D01*
G01X3923411Y-4594860D01*
G01X3927983Y-4599178D01*
G01X3932301Y-4601464D01*
G01X3940937Y-4601464D01*
G01X3945255Y-4599178D01*
G01X3949827Y-4594860D01*
G01X3951859Y-4590542D01*
G01X3972433Y-4555490D02*
G01X3972433Y-4601464D01*
G01X4003167Y-4555490D02*
G01X3972433Y-4586224D01*
G01X3983355Y-4575302D02*
G01X4003167Y-4601464D01*
G01X3938270Y-4818888D02*
G01X3935984Y-4814570D01*
G01X3931666Y-4810252D01*
G01X3927348Y-4807966D01*
G01X3918712Y-4807966D01*
G01X3914140Y-4810252D01*
G01X3909822Y-4814570D01*
G01X3907790Y-4818888D01*
G01X3905504Y-4825492D01*
G01X3905504Y-4836414D01*
G01X3907790Y-4843018D01*
G01X3909822Y-4847336D01*
G01X3914140Y-4851654D01*
G01X3918712Y-4853940D01*
G01X3927348Y-4853940D01*
G01X3931666Y-4851654D01*
G01X3935984Y-4847336D01*
G01X3938270Y-4843018D01*
G01X3989578Y-4814570D02*
G01X3985006Y-4810252D01*
G01X3978656Y-4807966D01*
G01X3969766Y-4807966D01*
G01X3963162Y-4810252D01*
G01X3958844Y-4814570D01*
G01X3958844Y-4818888D01*
G01X3961130Y-4823460D01*
G01X3963162Y-4825492D01*
G01X3967734Y-4827778D01*
G01X3980688Y-4832096D01*
G01X3985006Y-4834382D01*
G01X3987292Y-4836414D01*
G01X3989578Y-4840732D01*
G01X3989578Y-4847336D01*
G01X3985006Y-4851654D01*
G01X3978656Y-4853940D01*
G01X3969766Y-4853940D01*
G01X3963162Y-4851654D01*
G01X3958844Y-4847336D01*
G54D10*
G01X3848354Y-2911610D02*
G01X3842004Y-2905514D01*
G01X3832860Y-2902466D01*
G01X3820414Y-2902466D01*
G01X3811016Y-2905514D01*
G01X3804920Y-2911610D01*
G01X3804920Y-2917960D01*
G01X3807968Y-2924056D01*
G01X3811016Y-2927104D01*
G01X3817366Y-2930152D01*
G01X3835908Y-2936502D01*
G01X3842004Y-2939550D01*
G01X3845052Y-2942598D01*
G01X3848354Y-2948948D01*
G01X3848354Y-2958092D01*
G01X3842004Y-2964442D01*
G01X3832860Y-2967490D01*
G01X3820414Y-2967490D01*
G01X3811016Y-2964442D01*
G01X3804920Y-2958092D01*
G01X3878580Y-2902466D02*
G01X3878580Y-2967490D01*
G01X3878580Y-2902466D02*
G01X3900170Y-2902466D01*
G01X3909314Y-2905514D01*
G01X3915664Y-2911610D01*
G01X3918712Y-2917960D01*
G01X3921760Y-2927104D01*
G01X3921760Y-2942598D01*
G01X3918712Y-2951996D01*
G01X3915664Y-2958092D01*
G01X3909314Y-2964442D01*
G01X3900170Y-2967490D01*
G01X3878580Y-2967490D01*
G01X3998214Y-2917960D02*
G01X3995166Y-2911610D01*
G01X3989070Y-2905514D01*
G01X3982720Y-2902466D01*
G01X3970528Y-2902466D01*
G01X3964178Y-2905514D01*
G01X3958082Y-2911610D01*
G01X3955034Y-2917960D01*
G01X3951986Y-2927104D01*
G01X3951986Y-2942598D01*
G01X3955034Y-2951996D01*
G01X3958082Y-2958092D01*
G01X3964178Y-2964442D01*
G01X3970528Y-2967490D01*
G01X3982720Y-2967490D01*
G01X3989070Y-2964442D01*
G01X3995166Y-2958092D01*
G01X3998214Y-2951996D01*
G01X4028440Y-2914912D02*
G01X4034536Y-2911610D01*
G01X4043680Y-2902466D01*
G01X4043680Y-2967490D01*
G01X7951937Y-5391015D02*
G01X7905455Y-5391015D01*
G01X7896311Y-5394063D01*
G01X7889961Y-5400413D01*
G01X7886913Y-5409557D01*
G01X7886913Y-5415907D01*
G01X7889961Y-5425051D01*
G01X7896311Y-5431147D01*
G01X7905455Y-5434449D01*
G01X7951937Y-5434449D01*
G01X7936443Y-5467723D02*
G01X7939491Y-5467723D01*
G01X7945841Y-5470771D01*
G01X7948889Y-5473819D01*
G01X7951937Y-5479915D01*
G01X7951937Y-5492361D01*
G01X7948889Y-5498711D01*
G01X7945841Y-5501759D01*
G01X7939491Y-5504807D01*
G01X7933395Y-5504807D01*
G01X7927299Y-5501759D01*
G01X7917901Y-5495409D01*
G01X7886913Y-5464675D01*
G01X7886913Y-5507855D01*
G01X3310712Y-7164051D02*
G01X3304616Y-7170401D01*
G01X3301568Y-7179545D01*
G01X3301568Y-7191991D01*
G01X3304616Y-7201389D01*
G01X3310712Y-7207485D01*
G01X3317062Y-7207485D01*
G01X3323158Y-7204437D01*
G01X3326206Y-7201389D01*
G01X3329254Y-7195039D01*
G01X3335604Y-7176497D01*
G01X3338652Y-7170401D01*
G01X3341700Y-7167353D01*
G01X3348050Y-7164051D01*
G01X3357194Y-7164051D01*
G01X3363544Y-7170401D01*
G01X3366592Y-7179545D01*
G01X3366592Y-7191991D01*
G01X3363544Y-7201389D01*
G01X3357194Y-7207485D01*
G01X3301568Y-7133825D02*
G01X3366592Y-7118585D01*
G01X3301568Y-7103091D02*
G01X3366592Y-7118585D01*
G01X3301568Y-7103091D02*
G01X3366592Y-7087597D01*
G01X3301568Y-7072103D02*
G01X3366592Y-7087597D01*
G01X3314014Y-7041877D02*
G01X3310712Y-7035781D01*
G01X3301568Y-7026637D01*
G01X3366592Y-7026637D01*
G04 Text End*

G04 PolygonModel Start*
G01X271780Y-6090920D02*
G01X3081020Y-6090920D01*
G01X3081020Y-6090920D02*
G01X3081020Y-995680D01*
G01X3081020Y-995680D02*
G01X271780Y-995680D01*
G01X271780Y-995680D02*
G01X271780Y-6090920D01*
G54D14*
G01X4025900Y-2552700D02*
G01X4025900Y-1028700D01*
G01X4025900Y-1028700D02*
G01X5125900Y-1028700D01*
G01X5125900Y-2552700D02*
G01X4025900Y-2552700D01*
G01X5125900Y-2552700D02*
G01X5125900Y-1028700D01*
G54D16*
G01X7924800Y-3492500D02*
G01X8104784Y-3492500D01*
G01X8104784Y-3492500D02*
G01X8174787Y-3492500D01*
G01X8174787Y-3492500D02*
G01X8174787Y-4892497D01*
G01X8174787Y-4892497D02*
G01X8104784Y-4892497D01*
G01X8104784Y-4892497D02*
G01X7834782Y-4892497D01*
G01X7924800Y-3442513D02*
G01X6424778Y-3442513D01*
G01X6424778Y-3442513D02*
G01X6424778Y-4942484D01*
G01X6424778Y-4942484D02*
G01X7834782Y-4942484D01*
G01X7834782Y-4942484D02*
G01X7834782Y-4892497D01*
G01X7834782Y-4892497D02*
G01X7834782Y-3892499D01*
G01X7834782Y-3892499D02*
G01X7924800Y-3692500D01*
G01X7924800Y-3692500D02*
G01X7924800Y-3492500D01*
G01X7924800Y-3492500D02*
G01X7924800Y-3442513D01*
G01X7674788Y-3642487D02*
G01X7384796Y-3642487D01*
G01X7384796Y-3642487D02*
G01X7274789Y-3692500D01*
G01X7274789Y-3692500D02*
G01X7174789Y-3692500D01*
G01X7174789Y-3692500D02*
G01X7174789Y-3492500D01*
G01X7174789Y-3492500D02*
G01X7674788Y-3492500D01*
G01X7674788Y-3492500D02*
G01X7674788Y-3522497D01*
G01X7674788Y-3522497D02*
G01X7204786Y-3522497D01*
G01X7204786Y-3522497D02*
G01X7204786Y-3662502D01*
G01X7204786Y-3662502D02*
G01X7264781Y-3662502D01*
G01X7264781Y-3662502D02*
G01X7374788Y-3612490D01*
G01X7374788Y-3612490D02*
G01X7674788Y-3612490D01*
G01X7674788Y-3612490D02*
G01X7674788Y-3642487D01*
G54D14*
G01X5087798Y-5207244D02*
G01X5087798Y-4707252D01*
G01X5487800Y-5207244D02*
G01X5187798Y-5207244D01*
G01X5187798Y-5207244D02*
G01X5087798Y-5207244D01*
G01X5487800Y-5207244D02*
G01X5487800Y-4707252D01*
G01X5487800Y-4707219D02*
G01X5187798Y-4707219D01*
G01X5187798Y-4707219D02*
G01X5087798Y-4707219D01*
G01X4963201Y-3338096D02*
G01X5603199Y-3338096D01*
G01X5603199Y-3338096D02*
G01X5603199Y-3718098D01*
G01X4963201Y-3718098D02*
G01X4963201Y-3338096D01*
G01X4963201Y-3718098D02*
G01X5075697Y-3718098D01*
G01X5490703Y-3718098D02*
G01X5603199Y-3718098D01*
G01X8029999Y-5372100D02*
G01X8030007Y-4875893D01*
G01X3810000Y-3022100D02*
G01X3810000Y-5372100D01*
G01X7903007Y-4748893D02*
G01X8030007Y-4875893D01*
G01X7902999Y-3898900D02*
G01X7902999Y-4748901D01*
G01X7902999Y-3898900D02*
G01X8029796Y-3772103D01*
G01X3810000Y-5372100D02*
G01X8029999Y-5372100D01*
G01X3810000Y-3022100D02*
G01X8029999Y-3022100D01*
G01X8029999Y-3772101D02*
G01X8029999Y-3022100D01*
G54D16*
G01X8104784Y-3492500D02*
G03X8104784Y-4892497I6105012J-699999D01*
G54D14*
G01X5080000Y-3721108D02*
G01X5486400Y-3721108D01*
G01X5486400Y-3721108D02*
G01X5486400Y-3873508D01*
G01X5486400Y-3873508D02*
G01X5080000Y-3873508D01*
G01X5080000Y-3873508D02*
G01X5080000Y-3721108D01*
G01X5054600Y-3136908D02*
G01X5156200Y-3136908D01*
G01X5156200Y-3136908D02*
G01X5156200Y-3340108D01*
G01X5156200Y-3340108D02*
G01X5054600Y-3340108D01*
G01X5054600Y-3340108D02*
G01X5054600Y-3136908D01*
G01X5410200Y-3136908D02*
G01X5511800Y-3136908D01*
G01X5511800Y-3136908D02*
G01X5511800Y-3340108D01*
G01X5511800Y-3340108D02*
G01X5410200Y-3340108D01*
G01X5410200Y-3340108D02*
G01X5410200Y-3136908D01*
G01X5232400Y-3136908D02*
G01X5334000Y-3136908D01*
G01X5334000Y-3136908D02*
G01X5334000Y-3340108D01*
G01X5334000Y-3340108D02*
G01X5232400Y-3340108D01*
G01X5232400Y-3340108D02*
G01X5232400Y-3136908D01*
G01X5488940Y-4726948D02*
G01X5590540Y-4726948D01*
G01X5590540Y-4726948D02*
G01X5590540Y-4752348D01*
G01X5590540Y-4752348D02*
G01X5488940Y-4752348D01*
G01X5488940Y-4752348D02*
G01X5488940Y-4726948D01*
G01X5488940Y-4790448D02*
G01X5590540Y-4790448D01*
G01X5590540Y-4790448D02*
G01X5590540Y-4815848D01*
G01X5590540Y-4815848D02*
G01X5488940Y-4815848D01*
G01X5488940Y-4815848D02*
G01X5488940Y-4790448D01*
G01X5488940Y-4853948D02*
G01X5590540Y-4853948D01*
G01X5590540Y-4853948D02*
G01X5590540Y-4879348D01*
G01X5590540Y-4879348D02*
G01X5488940Y-4879348D01*
G01X5488940Y-4879348D02*
G01X5488940Y-4853948D01*
G01X5488940Y-4917448D02*
G01X5590540Y-4917448D01*
G01X5590540Y-4917448D02*
G01X5590540Y-4942848D01*
G01X5590540Y-4942848D02*
G01X5488940Y-4942848D01*
G01X5488940Y-4942848D02*
G01X5488940Y-4917448D01*
G01X5488940Y-4980948D02*
G01X5590540Y-4980948D01*
G01X5590540Y-4980948D02*
G01X5590540Y-5006348D01*
G01X5590540Y-5006348D02*
G01X5488940Y-5006348D01*
G01X5488940Y-5006348D02*
G01X5488940Y-4980948D01*
G01X5488940Y-5044448D02*
G01X5590540Y-5044448D01*
G01X5590540Y-5044448D02*
G01X5590540Y-5069848D01*
G01X5590540Y-5069848D02*
G01X5488940Y-5069848D01*
G01X5488940Y-5069848D02*
G01X5488940Y-5044448D01*
G01X5488940Y-5107948D02*
G01X5590540Y-5107948D01*
G01X5590540Y-5107948D02*
G01X5590540Y-5133348D01*
G01X5590540Y-5133348D02*
G01X5488940Y-5133348D01*
G01X5488940Y-5133348D02*
G01X5488940Y-5107948D01*
G01X5488940Y-5171448D02*
G01X5590540Y-5171448D01*
G01X5590540Y-5171448D02*
G01X5590540Y-5196848D01*
G01X5590540Y-5196848D02*
G01X5488940Y-5196848D01*
G01X5488940Y-5196848D02*
G01X5488940Y-5171448D01*
G01X4975860Y-5173988D02*
G01X5077460Y-5173988D01*
G01X5077460Y-5173988D02*
G01X5077460Y-5199388D01*
G01X5077460Y-5199388D02*
G01X4975860Y-5199388D01*
G01X4975860Y-5199388D02*
G01X4975860Y-5173988D01*
G01X4975860Y-5110488D02*
G01X5077460Y-5110488D01*
G01X5077460Y-5110488D02*
G01X5077460Y-5135888D01*
G01X5077460Y-5135888D02*
G01X4975860Y-5135888D01*
G01X4975860Y-5135888D02*
G01X4975860Y-5110488D01*
G01X4975860Y-5046988D02*
G01X5077460Y-5046988D01*
G01X5077460Y-5046988D02*
G01X5077460Y-5072388D01*
G01X5077460Y-5072388D02*
G01X4975860Y-5072388D01*
G01X4975860Y-5072388D02*
G01X4975860Y-5046988D01*
G01X4975860Y-4983488D02*
G01X5077460Y-4983488D01*
G01X5077460Y-4983488D02*
G01X5077460Y-5008888D01*
G01X5077460Y-5008888D02*
G01X4975860Y-5008888D01*
G01X4975860Y-5008888D02*
G01X4975860Y-4983488D01*
G01X4975860Y-4919988D02*
G01X5077460Y-4919988D01*
G01X5077460Y-4919988D02*
G01X5077460Y-4945388D01*
G01X5077460Y-4945388D02*
G01X4975860Y-4945388D01*
G01X4975860Y-4945388D02*
G01X4975860Y-4919988D01*
G01X4975860Y-4856488D02*
G01X5077460Y-4856488D01*
G01X5077460Y-4856488D02*
G01X5077460Y-4881888D01*
G01X5077460Y-4881888D02*
G01X4975860Y-4881888D01*
G01X4975860Y-4881888D02*
G01X4975860Y-4856488D01*
G01X4975860Y-4792988D02*
G01X5077460Y-4792988D01*
G01X5077460Y-4792988D02*
G01X5077460Y-4818388D01*
G01X5077460Y-4818388D02*
G01X4975860Y-4818388D01*
G01X4975860Y-4818388D02*
G01X4975860Y-4792988D01*
G01X4975860Y-4729488D02*
G01X5077460Y-4729488D01*
G01X5077460Y-4729488D02*
G01X5077460Y-4754888D01*
G01X5077460Y-4754888D02*
G01X4975860Y-4754888D01*
G01X4975860Y-4754888D02*
G01X4975860Y-4729488D01*
G01X3624402Y-6934200D02*
G01X3421202Y-6934200D01*
G01X3421202Y-6934200D02*
G01X3421202Y-6096000D01*
G01X3421202Y-6096000D02*
G01X3624402Y-6096000D01*
G01X6672402Y-6096000D02*
G01X6891096Y-6096000D01*
G01X6891096Y-6096000D02*
G01X6891096Y-6934200D01*
G01X6891096Y-6934200D02*
G01X6672402Y-6934200D01*
G01X6765125Y-6934200D02*
G01X6765125Y-6096000D01*
G01X6828625Y-6096000D02*
G01X6828625Y-6934200D01*
G01X3483775Y-6934200D02*
G01X3483775Y-6096000D01*
G01X3547275Y-6096000D02*
G01X3547275Y-6934200D01*

G04 Rect Start*
G01X5641200Y-460500D02*
G01X7141200Y-460500D01*
G01X7141200Y-2460500D01*
G01X5641200Y-2460500D01*
G01X5641200Y-460500D01*
G01X2137600Y-7283400D02*
G01X2137600Y-6483400D01*
G01X2637600Y-6483400D01*
G01X2637600Y-7283400D01*
G01X2137600Y-7283400D01*
G01X1134300Y-7283400D02*
G01X1134300Y-6483400D01*
G01X1634300Y-6483400D01*
G01X1634300Y-7283400D01*
G01X1134300Y-7283400D01*
G01X4629100Y-719900D02*
G01X3829100Y-719900D01*
G01X3829100Y-219900D01*
G01X4629100Y-219900D01*
G01X4629100Y-719900D01*
G01X7083500Y-5898400D02*
G01X8083500Y-5898400D01*
G01X8083500Y-6598400D01*
G01X7083500Y-6598400D01*
G01X7083500Y-5898400D01*
G54D17*
G01X6673418Y-7190105D02*
G01X3623412Y-7190105D01*
G01X3623412Y-5840095D01*
G01X6673418Y-5840095D01*
G01X6673418Y-7190105D01*
G04 Rect End*

G04 Circle Start*
G54D18*
G01X223774Y-1130300D03*
G54D14*
G01X5387594Y-5132070D02*
G03X5437581Y-5132070I24994J0D01*
G03X5387594Y-5132070I-24994J0D01*
G01X3675304Y-5702300D02*
G03X3766896Y-5702300I45796J0D01*
G03X3675304Y-5702300I-45796J0D01*
G04 Circle End*

M02*

