G04 Layer: BottomSolderMaskLayer*
G04 EasyEDA Pro v2.2.40.3, 2025-07-25 22:58:42*
G04 Gerber Generator version 0.3*
G04 Scale: 100 percent, Rotated: No, Reflected: No*
G04 Dimensions in millimeters*
G04 Leading zeros omitted, absolute positions, 4 integers and 5 decimals*
G04 Generated by one-click*
%FSLAX45Y45*%
%MOMM*%
%AMRoundRect*1,1,$1,$2,$3*1,1,$1,$4,$5*1,1,$1,0-$2,0-$3*1,1,$1,0-$4,0-$5*20,1,$1,$2,$3,$4,$5,0*20,1,$1,$4,$5,0-$2,0-$3,0*20,1,$1,0-$2,0-$3,0-$4,0-$5,0*20,1,$1,0-$4,0-$5,$2,$3,0*4,1,4,$2,$3,$4,$5,0-$2,0-$3,0-$4,0-$5,$2,$3,0*%
%ADD10C,1.6256*%
%ADD11C,1.7032*%
%ADD12C,1.7272*%
%ADD13O,2.2X1.7*%
%ADD14RoundRect,0.0963X-1.25185X-5.00184X-1.25185X5.00184*%
%ADD15O,2.6086X10.09998*%
%ADD16O,2.59999X10.09998*%
G75*


G04 Pad Start*
G54D10*
G01X406400Y-1130300D03*
G01X406400Y-1384300D03*
G01X406400Y-1638300D03*
G01X406400Y-1892300D03*
G01X406400Y-2146300D03*
G01X406400Y-2400300D03*
G01X406400Y-2654300D03*
G01X406400Y-2908300D03*
G01X406400Y-3162300D03*
G01X406400Y-3416300D03*
G01X406400Y-3670300D03*
G01X406400Y-3924300D03*
G01X406400Y-4178300D03*
G01X406400Y-4432300D03*
G01X406400Y-4686300D03*
G01X406400Y-4940300D03*
G01X406400Y-5194300D03*
G01X406400Y-5448300D03*
G01X406400Y-5702300D03*
G01X406400Y-5956300D03*
G01X2946400Y-5956300D03*
G01X2946400Y-5702300D03*
G01X2946400Y-5448300D03*
G01X2946400Y-5194300D03*
G01X2946400Y-4940300D03*
G01X2946400Y-4686300D03*
G01X2946400Y-4432300D03*
G01X2946400Y-4178300D03*
G01X2946400Y-3924300D03*
G01X2946400Y-3670300D03*
G01X2946400Y-3416300D03*
G01X2946400Y-3162300D03*
G01X2946400Y-2908300D03*
G01X2946400Y-2654300D03*
G01X2946400Y-2400300D03*
G01X2946400Y-2146300D03*
G01X2946400Y-1892300D03*
G01X2946400Y-1638300D03*
G01X2946400Y-1384300D03*
G01X2946400Y-1130300D03*
G54D11*
G01X5791200Y-571500D03*
G01X5791200Y-825500D03*
G01X5791200Y-1079500D03*
G01X5791200Y-1333500D03*
G01X5791200Y-1587500D03*
G01X5791200Y-1841500D03*
G01X5791200Y-2095500D03*
G01X5791200Y-2349500D03*
G54D10*
G01X2387600Y-6629400D03*
G01X2387600Y-6883400D03*
G01X2387600Y-7137400D03*
G01X1384300Y-6629400D03*
G01X1384300Y-6883400D03*
G01X1384300Y-7137400D03*
G01X3975100Y-469900D03*
G01X4229100Y-469900D03*
G01X4483100Y-469900D03*
G54D12*
G01X4152900Y-1155700D03*
G01X4152900Y-1409700D03*
G01X4152900Y-1663700D03*
G01X4152900Y-1917700D03*
G01X4152900Y-2184400D03*
G01X4152900Y-2438400D03*
G54D13*
G01X4209999Y-4070096D03*
G01X4209999Y-4324096D03*
G01X4209999Y-4578096D03*
G01X4209999Y-4832096D03*
G01X4209999Y-3816096D03*
G01X4209999Y-3562096D03*
G54D14*
G01X4056202Y-6515100D03*
G54D16*
G01X5156200Y-6515100D03*
G01X6256198Y-6515100D03*
G04 Pad End*

M02*

