G04 Layer: DrillDrawingLayer*
G04 EasyEDA Pro v2.2.40.3, 2025-07-25 22:58:42*
G04 Gerber Generator version 0.3*
G04 Scale: 100 percent, Rotated: No, Reflected: No*
G04 Dimensions in millimeters*
G04 Leading zeros omitted, absolute positions, 4 integers and 5 decimals*
G04 Generated by one-click*
%FSLAX45Y45*%
%MOMM*%
%AMIconRect*4,1,4,0.2,-0.2,-0.2,-0.2,-0.2,0.2,0.2,0.2,0.2,-0.2,0*4,0,4,0.166667,-0.166667,0.166667,0.166667,-0.166667,0.166667,-0.166667,-0.166667,0.166667,-0.166667,0*%
%AMIconTriangle*4,1,3,-0.242567,0.171767,0.242567,0.171767,0,-0.2706,-0.242567,0.171767,0*4,0,3,-0.189767,0.1386,0,-0.1953,0.190167,0.1386,-0.189767,0.1386,0*%
%AMIconStar6*4,1,12,0.0862,0.1492,0.213233,0.123367,0.172367,0,0.213233,-0.1229,0.0862,-0.148733,0,-0.245767,-0.085767,-0.148733,-0.213267,-0.1229,-0.171933,0,-0.213267,0.1229,-0.085767,0.1492,0,0.245767,0.0862,0.1492,0*4,0,12,-0.000333,0.195333,-0.064333,0.122667,-0.169667,0.097667,-0.138333,-0.005333,-0.169667,-0.098,-0.064333,-0.122667,-0.000333,-0.195667,0.064333,-0.122667,0.169667,-0.098,0.138667,0.005,0.169667,0.098,0.064333,0.122333,-0.000333,0.195333,0*%
%AMIconStar4*4,1,8,-0.222667,0.222667,0,0.144667,0.222667,0.222667,0.144667,0,0.222667,-0.222667,0,-0.144667,-0.217433,-0.222667,-0.144667,0,-0.222667,0.222667,0*4,0,8,0.166667,-0.166667,0.108,0,0.166667,0.166667,0,0.108,-0.166667,0.166667,-0.108,0,-0.166667,-0.166667,0,-0.108,0.166667,-0.166667,0*%
%AMIconPlus*4,1,12,0.124,-0.2,-0.124,-0.2,-0.124,-0.124,-0.2,-0.124,-0.2,0.124,-0.124,0.124,-0.124,0.2,0.124,0.2,0.124,0.124,0.2,0.124,0.2,-0.124,0.124,-0.124,0.124,-0.2,0*4,0,12,0.090667,-0.166667,0.090667,-0.090667,0.166667,-0.090667,0.166667,0.090667,0.090667,0.090667,0.090667,0.166667,-0.090667,0.166667,-0.090667,0.090667,-0.166667,0.090667,-0.166667,-0.090667,-0.090667,-0.090667,-0.090667,-0.166667,0.090667,-0.166667,0*%
%AMIconX*4,1,16,0.2,-0.2,0.054533,-0.2,0,-0.145467,-0.054533,-0.2,-0.2,-0.2,-0.2,-0.054533,-0.145467,0,-0.2,0.054533,-0.2,0.2,-0.054533,0.2,0,0.145467,0.054533,0.2,0.2,0.2,0.2,0.054533,0.145467,0,0.2,-0.054533,0.2,-0.2,0*4,0,16,0.1668,-0.1664,0.1668,-0.068467,0.097933,0.000067,0.1668,0.068467,0.1668,0.1665,0.068467,0.1665,0,0.097933,-0.068467,0.1665,-0.1668,0.1665,-0.1668,0.068467,-0.097933,0.000067,-0.1668,-0.068467,-0.1668,-0.1664,-0.068467,-0.1664,0,-0.097933,0.068467,-0.1664,0.1668,-0.1664,0*%
%ADD10IconRect*%
%ADD11C,0.44X0.373333*%
%ADD12IconTriangle*%
%ADD13IconStar6*%
%ADD14IconStar4*%
%ADD15IconPlus*%
%ADD16IconX*%
G75*


G04 Drill Drawing Start*
G54D10*
G01X1892300Y-6629400D03*
G01X4565904Y-2787396D03*
G54D11*
G01X7795006Y-5172100D03*
G01X7795006Y-3222092D03*
G54D12*
G01X4056202Y-6515100D03*
G01X5156200Y-6515100D03*
G01X6256198Y-6515100D03*
G54D13*
G01X500000Y-7100000D03*
G01X500000Y-500000D03*
G01X7900000Y-7100000D03*
G01X7900000Y-500000D03*
G54D14*
G01X4209994Y-4832096D03*
G01X4209994Y-4578096D03*
G01X4209994Y-4324096D03*
G01X4209994Y-4070096D03*
G01X4209994Y-3816096D03*
G01X4209994Y-3562096D03*
G54D15*
G01X1384300Y-7137400D03*
G01X1384300Y-6883400D03*
G01X1384300Y-6629400D03*
G01X2387600Y-7137400D03*
G01X2387600Y-6883400D03*
G01X2387600Y-6629400D03*
G01X3975100Y-469900D03*
G01X4229100Y-469900D03*
G01X4483100Y-469900D03*
G01X5791200Y-2349500D03*
G01X5791200Y-2095500D03*
G01X5791200Y-1841500D03*
G01X5791200Y-1587500D03*
G01X5791200Y-1333500D03*
G01X5791200Y-1079500D03*
G01X5791200Y-825500D03*
G01X5791200Y-571500D03*
G54D16*
G01X406400Y-5956300D03*
G01X406400Y-5702300D03*
G01X406400Y-5448300D03*
G01X406400Y-5194300D03*
G01X406400Y-4940300D03*
G01X406400Y-4686300D03*
G01X406400Y-4432300D03*
G01X406400Y-4178300D03*
G01X406400Y-3924300D03*
G01X406400Y-3670300D03*
G01X406400Y-3416300D03*
G01X406400Y-3162300D03*
G01X406400Y-2908300D03*
G01X406400Y-2654300D03*
G01X406400Y-2400300D03*
G01X406400Y-2146300D03*
G01X406400Y-1892300D03*
G01X406400Y-1638300D03*
G01X406400Y-1384300D03*
G01X406400Y-1130300D03*
G01X2946400Y-5956300D03*
G01X2946400Y-5702300D03*
G01X2946400Y-5448300D03*
G01X2946400Y-5194300D03*
G01X2946400Y-4940300D03*
G01X2946400Y-4686300D03*
G01X2946400Y-4432300D03*
G01X2946400Y-4178300D03*
G01X2946400Y-3924300D03*
G01X2946400Y-3670300D03*
G01X2946400Y-3416300D03*
G01X2946400Y-3162300D03*
G01X2946400Y-2908300D03*
G01X2946400Y-2654300D03*
G01X2946400Y-2400300D03*
G01X2946400Y-2146300D03*
G01X2946400Y-1892300D03*
G01X2946400Y-1638300D03*
G01X2946400Y-1384300D03*
G01X2946400Y-1130300D03*
G01X4152900Y-2438400D03*
G01X4152900Y-2184400D03*
G01X4152900Y-1917700D03*
G01X4152900Y-1663700D03*
G01X4152900Y-1409700D03*
G01X4152900Y-1155700D03*
G04 Drill Drawing End*

M02*

