G04 Layer: TopLayer*
G04 EasyEDA Pro v2.2.40.3, 2025-07-25 22:58:42*
G04 Gerber Generator version 0.3*
G04 Scale: 100 percent, Rotated: No, Reflected: No*
G04 Dimensions in millimeters*
G04 Leading zeros omitted, absolute positions, 4 integers and 5 decimals*
G04 Generated by one-click*
%FSLAX45Y45*%
%MOMM*%
%ADD10C,0.254*%
%ADD11C,1.524*%
%ADD12C,1.5*%
%ADD13O,2.0X1.5*%
%ADD14O,3.0X5.0*%
%ADD15R,2.49999X9.99998*%
%ADD16O,2.49999X9.99998*%
%ADD17C,0.6117*%
%ADD18C,0.61*%
G75*


G04 PolygonModel Start*
G54D10*
G01X7315200Y-6388100D02*
G01X6375400Y-7327900D01*
G01X5562600Y-7327900D01*
G01X5156149Y-6921449D01*
G01X5156149Y-6629301D01*
G01X7886700Y-6248400D02*
G01X7086600Y-5448300D01*
G01X2946400Y-5448300D01*
G01X2819400Y-1358900D02*
G01X2819400Y-1025901D01*
G01X3121401Y-723900D01*
G01X3454400Y-723900D01*
G01X4152900Y-1409700D02*
G01X3873500Y-1130300D01*
G01X2946400Y-1130300D01*
G01X3580165Y-5448300D02*
G01X3580165Y-5772957D01*
G01X2723722Y-6629400D01*
G01X1899565Y-6629400D01*
G01X3975100Y-469900D02*
G01X2616200Y-469900D01*
G01X2616200Y-469900D02*
G01X1384300Y-1701800D01*
G01X1384300Y-6629400D01*

G04 Pad Start*
G54D11*
G01X406400Y-1130300D03*
G01X406400Y-1384300D03*
G01X406400Y-1638300D03*
G01X406400Y-1892300D03*
G01X406400Y-2146300D03*
G01X406400Y-2400300D03*
G01X406400Y-2654300D03*
G01X406400Y-2908300D03*
G01X406400Y-3162300D03*
G01X406400Y-3416300D03*
G01X406400Y-3670300D03*
G01X406400Y-3924300D03*
G01X406400Y-4178300D03*
G01X406400Y-4432300D03*
G01X406400Y-4686300D03*
G01X406400Y-4940300D03*
G01X406400Y-5194300D03*
G01X406400Y-5448300D03*
G01X406400Y-5702300D03*
G01X406400Y-5956300D03*
G01X2946400Y-5956300D03*
G01X2946400Y-5702300D03*
G01X2946400Y-5448300D03*
G01X2946400Y-5194300D03*
G01X2946400Y-4940300D03*
G01X2946400Y-4686300D03*
G01X2946400Y-4432300D03*
G01X2946400Y-4178300D03*
G01X2946400Y-3924300D03*
G01X2946400Y-3670300D03*
G01X2946400Y-3416300D03*
G01X2946400Y-3162300D03*
G01X2946400Y-2908300D03*
G01X2946400Y-2654300D03*
G01X2946400Y-2400300D03*
G01X2946400Y-2146300D03*
G01X2946400Y-1892300D03*
G01X2946400Y-1638300D03*
G01X2946400Y-1384300D03*
G01X2946400Y-1130300D03*
G54D12*
G01X5791200Y-571500D03*
G01X5791200Y-825500D03*
G01X5791200Y-1079500D03*
G01X5791200Y-1333500D03*
G01X5791200Y-1587500D03*
G01X5791200Y-1841500D03*
G01X5791200Y-2095500D03*
G01X5791200Y-2349500D03*
G54D11*
G01X2387600Y-6629400D03*
G01X2387600Y-6883400D03*
G01X2387600Y-7137400D03*
G01X1384300Y-6629400D03*
G01X1384300Y-6883400D03*
G01X1384300Y-7137400D03*
G01X3975100Y-469900D03*
G01X4229100Y-469900D03*
G01X4483100Y-469900D03*
G01X4152900Y-1155700D03*
G01X4152900Y-1409700D03*
G01X4152900Y-1663700D03*
G01X4152900Y-1917700D03*
G01X4152900Y-2184400D03*
G01X4152900Y-2438400D03*
G54D13*
G01X4209999Y-4070096D03*
G01X4209999Y-4324096D03*
G01X4209999Y-4578096D03*
G01X4209999Y-4832096D03*
G01X4209999Y-3816096D03*
G01X4209999Y-3562096D03*
G54D14*
G01X7886700Y-6248400D03*
G01X7327900Y-6248400D03*
G54D15*
G01X4056202Y-6515100D03*
G54D16*
G01X5156200Y-6515100D03*
G01X6256198Y-6515100D03*
G04 Pad End*

G04 Via Start*
G54D18*
G01X4565904Y-2787396D03*
G01X1892300Y-6629400D03*
G04 Via End*

G04 Track Start*
G54D10*
G01X5670804Y-818896D02*
G01X5670804Y-691896D01*
G01X5791200Y-571500D01*
G01X2946400Y-3416300D02*
G01X4064000Y-4533900D01*
G01X4064000Y-4686097D01*
G01X4209999Y-4832096D01*
G01X2946400Y-2908300D02*
G01X3048203Y-2908300D01*
G01X4209999Y-4070096D01*
G01X2946400Y-1384300D02*
G01X4362399Y-2800299D01*
G01X4362399Y-4171696D01*
G01X4209999Y-4324096D01*
G01X2946400Y-4686300D02*
G01X1498600Y-6134100D01*
G01X1498600Y-7023100D01*
G01X1384300Y-7137400D01*
G01X3073400Y-4813300D02*
G01X2946400Y-4940300D01*
G01X3073400Y-3644900D02*
G01X3073400Y-4813300D01*
G01X2971800Y-3543300D02*
G01X3073400Y-3644900D01*
G01X2921000Y-3543300D02*
G01X2971800Y-3543300D01*
G01X2819400Y-3441700D02*
G01X2921000Y-3543300D01*
G01X2819400Y-1358900D02*
G01X2819400Y-3441700D01*
G01X4565904Y-2787396D02*
G01X4565904Y-1923796D01*
G01X5670804Y-818896D01*
G01X2959100Y-3175000D02*
G01X2959100Y-3251200D01*
G01X4222699Y-4514799D01*
G01X4222699Y-4565396D01*
G01X2946400Y-3162300D02*
G01X2959100Y-3175000D01*
G01X4222699Y-4565396D02*
G01X4209999Y-4578096D01*
G01X4229100Y-723900D02*
G01X3454400Y-723900D01*
G01X4483100Y-469900D02*
G01X4229100Y-723900D01*
G04 Track End*

M02*

