G04 Layer: BottomLayer*
G04 EasyEDA Pro v2.2.40.3, 2025-07-25 22:58:42*
G04 Gerber Generator version 0.3*
G04 Scale: 100 percent, Rotated: No, Reflected: No*
G04 Dimensions in millimeters*
G04 Leading zeros omitted, absolute positions, 4 integers and 5 decimals*
G04 Generated by one-click*
%FSLAX45Y45*%
%MOMM*%
%ADD10C,0.254*%
%ADD11C,1.524*%
%ADD12C,1.5*%
%ADD13O,2.0X1.5*%
%ADD14R,2.49999X9.99998*%
%ADD15O,2.49999X9.99998*%
%ADD16C,0.6171*%
%ADD17C,0.61*%
G75*


G04 PolygonModel Start*
G54D10*
G01X4152900Y-1409700D02*
G01X5178138Y-1409700D01*
G01X5791200Y-825500D01*
G01X1892300Y-6629400D02*
G01X1384300Y-6629400D01*

G04 Pad Start*
G54D11*
G01X406400Y-1130300D03*
G01X406400Y-1384300D03*
G01X406400Y-1638300D03*
G01X406400Y-1892300D03*
G01X406400Y-2146300D03*
G01X406400Y-2400300D03*
G01X406400Y-2654300D03*
G01X406400Y-2908300D03*
G01X406400Y-3162300D03*
G01X406400Y-3416300D03*
G01X406400Y-3670300D03*
G01X406400Y-3924300D03*
G01X406400Y-4178300D03*
G01X406400Y-4432300D03*
G01X406400Y-4686300D03*
G01X406400Y-4940300D03*
G01X406400Y-5194300D03*
G01X406400Y-5448300D03*
G01X406400Y-5702300D03*
G01X406400Y-5956300D03*
G01X2946400Y-5956300D03*
G01X2946400Y-5702300D03*
G01X2946400Y-5448300D03*
G01X2946400Y-5194300D03*
G01X2946400Y-4940300D03*
G01X2946400Y-4686300D03*
G01X2946400Y-4432300D03*
G01X2946400Y-4178300D03*
G01X2946400Y-3924300D03*
G01X2946400Y-3670300D03*
G01X2946400Y-3416300D03*
G01X2946400Y-3162300D03*
G01X2946400Y-2908300D03*
G01X2946400Y-2654300D03*
G01X2946400Y-2400300D03*
G01X2946400Y-2146300D03*
G01X2946400Y-1892300D03*
G01X2946400Y-1638300D03*
G01X2946400Y-1384300D03*
G01X2946400Y-1130300D03*
G54D12*
G01X5791200Y-571500D03*
G01X5791200Y-825500D03*
G01X5791200Y-1079500D03*
G01X5791200Y-1333500D03*
G01X5791200Y-1587500D03*
G01X5791200Y-1841500D03*
G01X5791200Y-2095500D03*
G01X5791200Y-2349500D03*
G54D11*
G01X2387600Y-6629400D03*
G01X2387600Y-6883400D03*
G01X2387600Y-7137400D03*
G01X1384300Y-6629400D03*
G01X1384300Y-6883400D03*
G01X1384300Y-7137400D03*
G01X3975100Y-469900D03*
G01X4229100Y-469900D03*
G01X4483100Y-469900D03*
G01X4152900Y-1155700D03*
G01X4152900Y-1409700D03*
G01X4152900Y-1663700D03*
G01X4152900Y-1917700D03*
G01X4152900Y-2184400D03*
G01X4152900Y-2438400D03*
G54D13*
G01X4209999Y-4070096D03*
G01X4209999Y-4324096D03*
G01X4209999Y-4578096D03*
G01X4209999Y-4832096D03*
G01X4209999Y-3816096D03*
G01X4209999Y-3562096D03*
G54D14*
G01X4056202Y-6515100D03*
G54D15*
G01X5156200Y-6515100D03*
G01X6256198Y-6515100D03*
G04 Pad End*

G04 Via Start*
G54D17*
G01X4565904Y-2787396D03*
G01X1892300Y-6629400D03*
G04 Via End*

G04 Track Start*
G54D10*
G01X3797300Y-1511300D02*
G01X4152900Y-1155700D01*
G01X406400Y-5702300D02*
G01X2292604Y-3816096D01*
G01X4121404Y-3816096D02*
G01X4045204Y-3739896D01*
G01X5791200Y-825500D02*
G01X5918200Y-952500D01*
G01X5918200Y-1866900D01*
G01X5816600Y-1968500D01*
G01X5765800Y-1968500D01*
G01X4216400Y-3517900D01*
G01X4216400Y-3555695D01*
G01X4209999Y-3562096D01*
G01X406400Y-1892300D02*
G01X1955800Y-342900D01*
G01X4102100Y-342900D01*
G01X4229100Y-469900D01*
G01X406400Y-1892300D02*
G01X279400Y-2019300D01*
G01X279400Y-5727700D01*
G01X2946400Y-1638300D02*
G01X4127500Y-1638300D01*
G01X4152900Y-1663700D01*
G01X5207000Y-1663700D01*
G01X5791200Y-1079500D01*
G01X2946400Y-2400300D02*
G01X3670300Y-2400300D01*
G01X4152900Y-1917700D01*
G01X5207000Y-1917700D01*
G01X5791200Y-1333500D01*
G01X2946400Y-4432300D02*
G01X2514600Y-4864100D01*
G01X2514600Y-7010400D01*
G01X2387600Y-7137400D01*
G01X2292604Y-3816096D02*
G01X4121404Y-3816096D01*
G01X4209999Y-3816096D01*
G01X1384300Y-6883400D02*
G01X1968500Y-6883400D01*
G01X2387600Y-6883400D02*
G01X1968500Y-6883400D01*
G01X2400300Y-7315200D01*
G01X3256102Y-7315200D01*
G01X4056202Y-6515100D01*
G01X2921000Y-1511300D02*
G01X3797300Y-1511300D01*
G01X406400Y-4940300D02*
G01X2476500Y-2870200D01*
G01X2476500Y-1955800D01*
G01X2921000Y-1511300D01*
G01X4045204Y-3739896D02*
G01X4045204Y-3308096D01*
G01X4565904Y-2787396D01*
G01X426620Y-5829300D02*
G01X1384300Y-6786980D01*
G01X1384300Y-6883400D01*
G01X279400Y-5727700D02*
G01X381000Y-5829300D01*
G01X426620Y-5829300D01*
G04 Track End*

M02*

